# Blender v2.66 (sub 1) OBJ File: 'Circular House.blend'
# www.blender.org
mtllib Circular House.mtl
o Plane
v 4.000000 0.000000 4.000000
v -4.000000 0.000000 4.000000
v 4.000000 0.000000 -4.000000
v -4.000000 0.000000 -4.000000
vn 0.000000 1.000000 -0.000000
usemtl Material.001
s off
f 2//1 1//1 3//1
f 4//1 2//1 3//1
o Cylinder
v 0.004198 0.002284 -0.989347
v 0.004198 2.002284 -0.989347
v 0.199288 0.002284 -0.970132
v 0.199288 2.002284 -0.970132
v 0.386881 0.002284 -0.913226
v 0.386881 2.002284 -0.913226
v 0.559768 0.002284 -0.820816
v 0.559768 2.002284 -0.820816
v 0.711305 0.002284 -0.696454
v 0.711305 2.002284 -0.696454
v 0.835668 0.002284 -0.544917
v 0.835668 2.002284 -0.544917
v 0.928078 0.002284 -0.372030
v 0.928078 2.002284 -0.372030
v 0.984983 0.002284 -0.184437
v 0.984983 2.002284 -0.184437
v 1.004198 0.002284 0.010653
v 1.004198 2.002284 0.010653
v 0.984983 0.002284 0.205743
v 0.984983 2.002284 0.205743
v 0.928078 0.002284 0.393336
v 0.928078 2.002284 0.393336
v 0.835668 0.002284 0.566223
v 0.835668 2.002284 0.566223
v 0.711305 0.002284 0.717760
v 0.711305 2.002284 0.717760
v 0.559768 0.002284 0.842123
v 0.559768 2.002284 0.842123
v 0.386881 0.002284 0.934533
v 0.386881 2.002284 0.934533
v 0.199288 0.002284 0.991439
v 0.199288 2.002284 0.991439
v 0.004198 0.002284 1.010653
v 0.004198 2.002284 1.010653
v -0.190893 0.002284 0.991438
v -0.190893 2.002284 0.991438
v -0.378486 0.002284 0.934533
v -0.378486 2.002284 0.934533
v -0.551373 0.002284 0.842122
v -0.551373 2.002284 0.842122
v -0.702909 0.002284 0.717759
v -0.702909 2.002284 0.717759
v -0.827272 0.002284 0.566223
v -0.827272 2.002284 0.566223
v -0.919682 0.002284 0.393336
v -0.919682 2.002284 0.393336
v -0.976587 0.002284 0.205743
v -0.976587 2.002284 0.205743
v -0.995802 0.002284 0.010652
v -0.995802 2.002284 0.010652
v -0.976587 0.002284 -0.184438
v -0.976587 2.002284 -0.184438
v -0.919681 0.002284 -0.372031
v -0.919681 2.002284 -0.372031
v -0.827271 0.002284 -0.544918
v -0.827271 2.002284 -0.544918
v -0.702908 0.002284 -0.696455
v -0.702908 2.002284 -0.696455
v -0.551371 0.002284 -0.820817
v -0.551371 2.002284 -0.820817
v -0.378484 0.002284 -0.913227
v -0.378484 2.002284 -0.913227
v -0.190891 0.002284 -0.970132
v -0.190891 2.002284 -0.970132
v 0.004198 0.668950 -0.989347
v 0.004198 1.335617 -0.989347
v 0.199288 1.335617 -0.970132
v 0.199288 0.668950 -0.970132
v 0.386881 1.335617 -0.913226
v 0.386881 0.668950 -0.913226
v 0.559768 1.335617 -0.820816
v 0.559768 0.668950 -0.820816
v 0.711305 1.335617 -0.696454
v 0.711305 0.668950 -0.696454
v 0.835668 1.335617 -0.544917
v 0.835668 0.668950 -0.544917
v 0.928078 1.335617 -0.372030
v 0.928078 0.668950 -0.372030
v 0.984983 1.335617 -0.184437
v 0.984983 0.668950 -0.184437
v 1.004198 1.335617 0.010653
v 1.004198 0.668950 0.010653
v 0.984983 1.335617 0.205743
v 0.984983 0.668950 0.205743
v 0.928078 1.335617 0.393336
v 0.928078 0.668950 0.393336
v 0.835668 1.335617 0.566223
v 0.835668 0.668950 0.566223
v 0.711305 1.335617 0.717760
v 0.711305 0.668950 0.717760
v 0.559768 1.335617 0.842123
v 0.559768 0.668950 0.842123
v 0.386881 1.335617 0.934533
v 0.386881 0.668950 0.934533
v 0.199288 1.335617 0.991439
v 0.199288 0.668950 0.991439
v 0.004198 1.335617 1.010653
v 0.004198 0.668950 1.010653
v -0.190893 1.335617 0.991438
v -0.190893 0.668950 0.991438
v -0.378486 1.335617 0.934533
v -0.378486 0.668950 0.934533
v -0.551373 1.335617 0.842122
v -0.551373 0.668950 0.842122
v -0.702909 1.335617 0.717759
v -0.702909 0.668950 0.717759
v -0.827272 1.335617 0.566223
v -0.827272 0.668950 0.566223
v -0.919682 1.335617 0.393336
v -0.919682 0.668950 0.393336
v -0.976587 1.335617 0.205743
v -0.976587 0.668950 0.205743
v -0.995802 1.335617 0.010652
v -0.995802 0.668950 0.010652
v -0.976587 1.335617 -0.184438
v -0.976587 0.668950 -0.184438
v -0.919681 1.335617 -0.372031
v -0.919681 0.668950 -0.372031
v -0.827271 1.335617 -0.544918
v -0.827271 0.668950 -0.544918
v -0.702908 1.335617 -0.696455
v -0.702908 0.668950 -0.696455
v -0.551371 1.335617 -0.820817
v -0.551371 0.668950 -0.820817
v -0.378484 1.335617 -0.913227
v -0.378484 0.668950 -0.913227
v -0.190891 1.335617 -0.970132
v -0.190891 0.668950 -0.970132
v 0.004198 3.256377 0.010653
v 0.004198 1.646495 -1.413184
v 0.281975 1.646495 -1.385825
v 0.549077 1.646495 -1.304801
v 0.795240 1.646495 -1.173224
v 1.011003 1.646495 -0.996152
v 1.188076 1.646495 -0.780388
v 1.319652 1.646495 -0.534226
v 1.400677 1.646495 -0.267124
v 1.428035 1.646495 0.010653
v 1.400677 1.646495 0.288430
v 1.319652 1.646495 0.555532
v 1.188076 1.646495 0.801695
v 1.011003 1.646495 1.017458
v 0.795240 1.646495 1.194531
v 0.549077 1.646495 1.326108
v 0.281975 1.646495 1.407132
v 0.004198 1.646495 1.434491
v -0.273580 1.646495 1.407132
v -0.540682 1.646495 1.326107
v -0.786844 1.646495 1.194530
v -1.002608 1.646495 1.017458
v -1.179680 1.646495 0.801694
v -1.311257 1.646495 0.555531
v -1.392281 1.646495 0.288429
v -1.419639 1.646495 0.010652
v -1.392280 1.646495 -0.267125
v -1.311256 1.646495 -0.534227
v -1.179679 1.646495 -0.780390
v -1.002606 1.646495 -0.996153
v -0.786842 1.646495 -1.173225
v -0.540679 1.646495 -1.304802
v -0.273577 1.646495 -1.385826
vn 0.098017 0.000000 -0.995185
vn 0.290285 0.000000 -0.956940
vn 0.471397 0.000000 -0.881921
vn 0.634393 0.000000 -0.773010
vn 0.773010 0.000000 -0.634393
vn 0.881921 0.000000 -0.471397
vn 0.956940 0.000000 -0.290285
vn 0.995185 0.000000 -0.098018
vn 0.995185 0.000000 0.098017
vn 0.956940 0.000000 0.290285
vn 0.881922 0.000000 0.471396
vn 0.773010 0.000000 0.634393
vn 0.634393 0.000000 0.773011
vn 0.471397 0.000000 0.881921
vn 0.290285 0.000000 0.956940
vn 0.098017 0.000000 0.995185
vn -0.098017 0.000000 0.995185
vn -0.290285 0.000000 0.956940
vn -0.471397 0.000000 0.881921
vn -0.634394 0.000000 0.773010
vn -0.773011 0.000000 0.634393
vn -0.881922 0.000000 0.471396
vn -0.956941 0.000000 0.290284
vn -0.995185 0.000000 0.098016
vn -0.995185 -0.000000 -0.098018
vn -0.956940 -0.000000 -0.290286
vn -0.881921 -0.000000 -0.471398
vn -0.773010 -0.000000 -0.634394
vn -0.634392 -0.000000 -0.773011
vn -0.471396 -0.000000 -0.881922
vn -0.098017 -0.000000 -0.995185
vn -0.290283 -0.000000 -0.956941
vn 0.000000 -1.000000 -0.000000
vn 0.881921 0.000000 0.471396
vn 0.634393 0.000000 0.773010
vn -0.471395 -0.000000 -0.881922
vn -0.690834 0.621609 0.369258
vn 0.749598 0.621609 0.227388
vn -0.496937 0.621609 -0.605521
vn -0.076780 0.621609 0.779556
vn 0.605521 0.621609 -0.496938
vn -0.779556 0.621609 0.076779
vn 0.605520 0.621609 0.496938
vn -0.227387 0.621609 -0.749598
vn -0.369259 0.621609 0.690833
vn 0.749598 0.621609 -0.227388
vn -0.749598 0.621609 -0.227389
vn 0.369258 0.621609 0.690833
vn 0.227388 0.621609 -0.749598
vn -0.605521 0.621609 0.496937
vn 0.779556 0.621609 0.076780
vn -0.605520 0.621609 -0.496939
vn 0.076779 0.621609 0.779556
vn 0.496938 0.621609 -0.605521
vn -0.749598 0.621609 0.227387
vn 0.076780 0.621609 -0.779556
vn 0.690834 0.621609 0.369258
vn -0.369257 0.621609 -0.690834
vn -0.227388 0.621609 0.749598
vn 0.690833 0.621609 -0.369258
vn -0.779556 0.621609 -0.076780
vn 0.496938 0.621609 0.605521
vn -0.076779 0.621609 -0.779556
vn -0.496938 0.621609 0.605520
vn 0.779556 0.621609 -0.076780
vn -0.690833 0.621609 -0.369259
vn 0.227388 0.621609 0.749598
vn 0.369258 0.621609 -0.690833
vn 0.187165 0.764383 -0.616999
vn -0.498408 0.764383 0.409033
vn 0.641658 0.764383 0.063198
vn -0.498408 0.764383 -0.409034
vn 0.063197 0.764383 0.641658
vn 0.409033 0.764383 -0.498408
vn -0.617000 0.764383 0.187164
vn 0.063198 0.764383 -0.641658
vn 0.568630 0.764383 0.303939
vn -0.303938 0.764383 -0.568630
vn -0.187165 0.764383 0.616999
vn 0.568630 0.764383 -0.303939
vn -0.641658 0.764383 -0.063198
vn 0.409033 0.764383 0.498408
vn -0.063198 0.764383 -0.641658
vn -0.409033 0.764383 0.498408
vn 0.641658 0.764383 -0.063198
vn -0.568630 0.764383 -0.303940
vn 0.187165 0.764383 0.616999
vn 0.303939 0.764383 -0.568630
vn -0.568630 0.764383 0.303939
vn 0.616999 0.764383 0.187165
vn -0.409033 0.764383 -0.498409
vn -0.063198 0.764383 0.641658
vn 0.498408 0.764383 -0.409033
vn -0.641658 0.764383 0.063197
vn 0.498408 0.764383 0.409033
vn -0.187164 0.764383 -0.617000
vn -0.303939 0.764383 0.568630
vn 0.616999 0.764383 -0.187165
vn -0.616999 0.764383 -0.187165
vn 0.303939 0.764383 0.568630
vn 0.187165 0.764383 -0.617000
vn 0.063198 0.764383 0.641658
vn -0.063197 0.764383 -0.641658
vn -0.568630 0.764383 -0.303939
vn 0.187164 0.764383 0.616999
vn -0.568630 0.764383 0.303938
usemtl Material
s off
f 70//2 6//2 8//2
f 71//3 8//3 10//3
f 73//4 10//4 12//4
f 75//5 12//5 14//5
f 77//6 14//6 16//6
f 79//7 16//7 18//7
f 81//8 18//8 20//8
f 83//9 20//9 22//9
f 85//10 22//10 24//10
f 87//11 24//11 26//11
f 89//12 26//12 28//12
f 91//13 28//13 30//13
f 93//14 30//14 32//14
f 95//15 32//15 34//15
f 97//16 34//16 36//16
f 99//17 36//17 38//17
f 101//18 38//18 103//18
f 103//19 40//19 105//19
f 105//20 42//20 107//20
f 107//21 44//21 109//21
f 109//22 46//22 111//22
f 111//23 48//23 113//23
f 113//24 50//24 115//24
f 115//25 52//25 117//25
f 117//26 54//26 119//26
f 119//27 56//27 121//27
f 121//28 58//28 123//28
f 123//29 60//29 125//29
f 125//30 62//30 127//30
f 127//31 64//31 129//31
f 131//32 68//32 70//32
f 129//33 66//33 131//33
f 5//34 7//34 67//34
f 5//2 69//2 72//2
f 7//3 72//3 74//3
f 9//4 74//4 76//4
f 74//4 73//4 75//4
f 11//5 76//5 78//5
f 76//5 75//5 77//5
f 13//6 78//6 80//6
f 78//6 77//6 79//6
f 15//7 80//7 82//7
f 80//7 79//7 81//7
f 17//8 82//8 84//8
f 82//8 81//8 83//8
f 19//9 84//9 86//9
f 84//9 83//9 85//9
f 21//10 86//10 88//10
f 86//10 85//10 87//10
f 23//11 88//11 90//11
f 88//11 87//11 89//11
f 25//35 90//35 92//35
f 90//35 89//35 91//35
f 27//13 92//13 94//13
f 92//13 91//13 93//13
f 29//36 94//36 96//36
f 94//14 93//14 95//14
f 31//15 96//15 98//15
f 96//15 95//15 97//15
f 33//16 98//16 100//16
f 35//17 100//17 102//17
f 37//18 102//18 39//18
f 39//19 104//19 41//19
f 41//20 106//20 43//20
f 106//20 105//20 108//20
f 43//21 108//21 45//21
f 108//21 107//21 110//21
f 45//22 110//22 47//22
f 110//22 109//22 112//22
f 47//23 112//23 49//23
f 112//23 111//23 114//23
f 49//24 114//24 51//24
f 114//24 113//24 116//24
f 51//25 116//25 53//25
f 116//25 115//25 118//25
f 53//26 118//26 55//26
f 118//26 117//26 120//26
f 55//27 120//27 57//27
f 120//27 119//27 122//27
f 57//28 122//28 59//28
f 122//28 121//28 124//28
f 59//29 124//29 61//29
f 124//29 123//29 126//29
f 61//30 126//30 63//30
f 126//30 125//30 128//30
f 63//37 128//37 65//37
f 128//37 127//37 130//37
f 67//32 132//32 5//32
f 65//33 130//33 67//33
f 50//38 48//38 133//38
f 26//39 24//39 133//39
f 64//40 62//40 133//40
f 40//41 38//41 133//41
f 16//42 14//42 133//42
f 54//43 52//43 133//43
f 30//44 28//44 133//44
f 68//45 66//45 133//45
f 44//46 42//46 133//46
f 20//47 18//47 133//47
f 58//48 56//48 133//48
f 34//49 32//49 133//49
f 10//50 8//50 133//50
f 48//51 46//51 133//51
f 24//52 22//52 133//52
f 62//53 60//53 133//53
f 38//54 36//54 133//54
f 14//55 12//55 133//55
f 52//56 50//56 133//56
f 8//57 6//57 133//57
f 28//58 26//58 133//58
f 66//59 64//59 133//59
f 42//60 40//60 133//60
f 18//61 16//61 133//61
f 56//62 54//62 133//62
f 32//63 30//63 133//63
f 6//64 68//64 133//64
f 46//65 44//65 133//65
f 22//66 20//66 133//66
f 60//67 58//67 133//67
f 36//68 34//68 133//68
f 12//69 10//69 133//69
f 8//70 10//70 136//70
f 46//71 48//71 154//71
f 22//72 24//72 143//72
f 60//73 62//73 161//73
f 36//74 38//74 150//74
f 12//75 14//75 138//75
f 50//76 52//76 156//76
f 6//77 8//77 135//77
f 26//78 28//78 145//78
f 64//79 66//79 163//79
f 40//80 42//80 151//80
f 16//81 18//81 140//81
f 54//82 56//82 158//82
f 30//83 32//83 147//83
f 68//84 6//84 165//84
f 44//85 46//85 153//85
f 20//86 22//86 142//86
f 58//87 60//87 160//87
f 34//88 36//88 149//88
f 10//89 12//89 137//89
f 48//90 50//90 155//90
f 24//91 26//91 144//91
f 62//92 64//92 162//92
f 38//93 40//93 150//93
f 14//94 16//94 139//94
f 52//95 54//95 157//95
f 28//96 30//96 146//96
f 66//97 68//97 164//97
f 42//98 44//98 152//98
f 18//99 20//99 141//99
f 56//100 58//100 159//100
f 32//101 34//101 148//101
f 71//2 70//2 8//2
f 73//3 71//3 10//3
f 75//4 73//4 12//4
f 77//5 75//5 14//5
f 79//6 77//6 16//6
f 81//7 79//7 18//7
f 83//8 81//8 20//8
f 85//9 83//9 22//9
f 87//10 85//10 24//10
f 89//11 87//11 26//11
f 91//12 89//12 28//12
f 93//13 91//13 30//13
f 95//14 93//14 32//14
f 97//15 95//15 34//15
f 99//16 97//16 36//16
f 101//17 99//17 38//17
f 38//18 40//18 103//18
f 40//19 42//19 105//19
f 42//20 44//20 107//20
f 44//21 46//21 109//21
f 46//22 48//22 111//22
f 48//23 50//23 113//23
f 50//24 52//24 115//24
f 52//25 54//25 117//25
f 54//26 56//26 119//26
f 56//27 58//27 121//27
f 58//28 60//28 123//28
f 60//29 62//29 125//29
f 62//30 64//30 127//30
f 64//31 66//31 129//31
f 68//32 6//32 70//32
f 66//33 68//33 131//33
f 7//34 9//34 67//34
f 9//34 11//34 67//34
f 11//34 13//34 67//34
f 13//34 15//34 67//34
f 15//34 17//34 67//34
f 17//34 19//34 67//34
f 19//34 21//34 67//34
f 21//34 23//34 67//34
f 23//34 25//34 67//34
f 25//34 27//34 67//34
f 27//34 29//34 67//34
f 29//34 31//34 67//34
f 31//34 33//34 67//34
f 33//34 35//34 67//34
f 35//34 37//34 67//34
f 37//34 39//34 67//34
f 39//34 41//34 67//34
f 41//34 43//34 67//34
f 43//34 45//34 67//34
f 45//34 47//34 67//34
f 47//34 49//34 67//34
f 49//34 51//34 67//34
f 51//34 53//34 67//34
f 53//34 55//34 67//34
f 55//34 57//34 67//34
f 57//34 59//34 67//34
f 59//34 61//34 67//34
f 61//34 63//34 67//34
f 63//34 65//34 67//34
f 7//2 5//2 72//2
f 9//3 7//3 74//3
f 11//4 9//4 76//4
f 76//4 74//4 75//4
f 13//5 11//5 78//5
f 78//5 76//5 77//5
f 15//6 13//6 80//6
f 80//6 78//6 79//6
f 17//7 15//7 82//7
f 82//7 80//7 81//7
f 19//8 17//8 84//8
f 84//8 82//8 83//8
f 21//9 19//9 86//9
f 86//9 84//9 85//9
f 23//10 21//10 88//10
f 88//10 86//10 87//10
f 25//11 23//11 90//11
f 90//11 88//11 89//11
f 27//35 25//35 92//35
f 92//35 90//35 91//35
f 29//13 27//13 94//13
f 94//13 92//13 93//13
f 31//36 29//36 96//36
f 96//14 94//14 95//14
f 33//15 31//15 98//15
f 98//15 96//15 97//15
f 35//16 33//16 100//16
f 37//17 35//17 102//17
f 102//18 104//18 39//18
f 104//19 106//19 41//19
f 106//20 108//20 43//20
f 105//20 107//20 108//20
f 108//21 110//21 45//21
f 107//21 109//21 110//21
f 110//22 112//22 47//22
f 109//22 111//22 112//22
f 112//23 114//23 49//23
f 111//23 113//23 114//23
f 114//24 116//24 51//24
f 113//24 115//24 116//24
f 116//25 118//25 53//25
f 115//25 117//25 118//25
f 118//26 120//26 55//26
f 117//26 119//26 120//26
f 120//27 122//27 57//27
f 119//27 121//27 122//27
f 122//28 124//28 59//28
f 121//28 123//28 124//28
f 124//29 126//29 61//29
f 123//29 125//29 126//29
f 126//30 128//30 63//30
f 125//30 127//30 128//30
f 128//37 130//37 65//37
f 127//37 129//37 130//37
f 132//32 69//32 5//32
f 130//33 132//33 67//33
f 135//102 8//102 136//102
f 48//71 155//71 154//71
f 142//72 22//72 143//72
f 62//73 162//73 161//73
f 149//103 36//103 150//103
f 137//75 12//75 138//75
f 52//76 157//76 156//76
f 134//77 6//77 135//77
f 144//78 26//78 145//78
f 66//79 164//79 163//79
f 42//80 152//80 151//80
f 139//81 16//81 140//81
f 56//82 159//82 158//82
f 146//83 30//83 147//83
f 6//104 134//104 165//104
f 46//85 154//85 153//85
f 141//86 20//86 142//86
f 60//105 161//105 160//105
f 148//106 34//106 149//106
f 136//89 10//89 137//89
f 50//107 156//107 155//107
f 143//91 24//91 144//91
f 64//92 163//92 162//92
f 40//93 151//93 150//93
f 138//94 14//94 139//94
f 54//95 158//95 157//95
f 145//96 28//96 146//96
f 68//97 165//97 164//97
f 44//98 153//98 152//98
f 140//99 18//99 141//99
f 58//100 160//100 159//100
f 147//101 32//101 148//101
